PathFileType	4	(X/Y/Z)	C:\MyCloud\GitHub\OpenSimScripting\Matlab\Data\Gait2354_Simbody\Static_Marker.trc	
DataRate	CameraRate	NumFrames	NumMarkers	Units	OrigDataRate	OrigDataStartFrame	OrigNumFrames
100	100	4	33	mm	100	76	100
Frame#	Time	C7			CLAV			STRN			LSHO			RSHO			LASIS			RLSIS			LPSIS			RPSIS			LGTF			LLCF			LMCF			LAF			RGTF			RLCF			RMCF			RAF			RFH			RANK			RMANK			RATT			LFH			LANK			LMANK			LATT			LHEE			L5MT			LTOE			L1MT			RHEE			R5MT			RTOE			R1MT			
		X1	Y1	Z1	X2	Y2	Z2	X3	Y3	Z3	X4	Y4	Z4	X5	Y5	Z5	X6	Y6	Z6	X7	Y7	Z7	X8	Y8	Z8	X9	Y9	Z9	X10	Y10	Z10	X11	Y11	Z11	X12	Y12	Z12	X13	Y13	Z13	X14	Y14	Z14	X15	Y15	Z15	X16	Y16	Z16	X17	Y17	Z17	X18	Y18	Z18	X19	Y19	Z19	X20	Y20	Z20	X21	Y21	Z21	X22	Y22	Z22	X23	Y23	Z23	X24	Y24	Z24	X25	Y25	Z25	X26	Y26	Z26	X27	Y27	Z27	X28	Y28	Z28	X29	Y29	Z29	X30	Y30	Z30	X31	Y31	Z31	X32	Y32	Z32	X33	Y33	Z33	

76	0.76000	370.93707	1586.82605	-41.59515	527.67859	1497.69263	-27.92236	555.91052	1437.12537	-35.58373	429.38657	1561.29932	-146.55560	418.03958	1560.52161	73.64561	505.74719	990.13373	-180.70683	504.05966	997.28345	115.74829	299.95538	1023.50830	-74.49925	305.72971	1024.28564	-8.70679	392.46844	881.58923	-213.96323	460.41663	517.85736	-219.69077	449.20114	516.02136	-91.78233	532.99078	799.03442	-200.78224	438.75620	879.44788	149.39172	479.03262	514.81995	148.44380	443.65179	496.76169	22.91669	540.83160	618.82721	97.22337	452.52631	455.16052	169.49301	386.45963	48.38685	143.92992	403.15952	75.14254	47.74698	497.07269	424.68951	118.39412	432.88419	471.81320	-233.16043	384.18896	54.39161	-200.88010	402.48212	78.56371	-106.37444	479.89285	428.36636	-192.08945	336.17261	67.17537	-153.18456	502.12317	9.57967	-229.84515	589.23236	30.55011	-145.37360	531.06995	22.73809	-106.08093	332.80692	72.21947	101.51852	496.01077	19.27236	174.18620	583.31207	27.73255	100.59286	527.09137	22.60535	54.80064	
77	0.77000	370.90854	1586.78662	-41.55700	527.66077	1497.71851	-28.00089	555.91321	1437.13586	-35.63915	429.35736	1561.20178	-146.54538	418.01932	1560.52197	73.66209	505.67838	990.08472	-180.67429	504.12012	997.19647	115.71213	299.97058	1023.50781	-74.43436	305.76135	1024.29236	-8.68607	392.47141	881.52075	-213.98389	460.39688	517.77350	-219.69920	449.17664	516.01245	-91.74015	532.97400	798.99176	-200.79939	438.78790	879.43170	149.37782	479.04590	514.79956	148.41176	443.57956	496.65216	22.88507	540.83344	618.83887	97.18305	452.52585	455.15829	169.51762	386.47253	48.39956	143.97305	403.22360	75.05185	47.79714	497.03876	424.72589	118.39987	432.88196	471.79443	-233.13916	384.22372	54.28397	-200.82571	402.49249	78.57845	-106.31003	479.89966	428.35638	-192.09575	336.19177	67.17129	-153.15382	502.14493	9.51912	-229.84357	589.25250	30.50815	-145.34424	531.08881	22.73874	-106.10506	332.78131	72.17490	101.48930	496.00592	19.29285	174.23904	583.32458	27.73555	100.61758	527.10394	22.51434	54.77271	
78	0.78000	370.84787	1586.86560	-41.63018	527.63440	1497.73364	-28.02864	555.88708	1437.11890	-35.66241	429.35510	1561.25342	-146.60159	418.02457	1560.56067	73.65276	505.76508	990.06085	-180.70207	504.18839	997.16565	115.73296	299.95404	1023.57367	-74.43494	305.74689	1024.33569	-8.69739	392.46539	881.53564	-213.98140	460.36090	517.75623	-219.71049	449.25449	515.92603	-91.75462	532.97278	798.92590	-200.77060	438.84659	879.41687	149.38231	479.08463	514.77795	148.41798	443.75586	496.73184	22.94431	540.86487	618.78760	97.17977	452.55246	455.15152	169.51187	386.48422	48.39657	143.96230	403.25317	75.11156	47.73321	497.12442	424.63782	118.34851	432.88544	471.76624	-233.12193	384.21304	54.36354	-200.83443	402.56577	78.56155	-106.36503	479.87277	428.33551	-192.05377	336.17346	67.14366	-153.16368	502.19705	9.49239	-229.78035	589.23578	30.50716	-145.34709	531.10583	22.66974	-106.08900	332.78717	72.16902	101.45347	496.01849	19.28399	174.20796	583.37244	27.70570	100.59325	527.14294	22.56833	54.83846	
79	0.79000	370.79785	1586.82349	-41.63639	527.62366	1497.84155	-28.01957	555.88855	1437.19849	-35.67812	429.26208	1561.27271	-146.64868	418.02258	1560.61438	73.61490	505.78754	990.07111	-180.69014	504.19534	997.24036	115.69958	299.96063	1023.53406	-74.40630	305.77487	1024.28479	-8.65714	392.42535	881.48810	-213.94275	460.35861	517.79077	-219.69859	449.21075	516.01770	-91.78018	532.89569	798.99683	-200.79150	438.86053	879.44550	149.41953	479.08249	514.81708	148.40450	443.73587	496.82166	22.94645	540.89673	618.83490	97.16141	452.55298	455.15720	169.49605	386.47006	48.40792	143.90862	403.22208	75.17665	47.71788	497.06940	424.67850	118.38444	432.81201	471.81726	-233.15868	384.20166	54.38611	-200.87018	402.45749	78.66724	-106.32839	479.83807	428.34964	-192.06094	336.18036	67.16945	-153.17903	502.18677	9.50124	-229.82114	589.23480	30.53440	-145.37611	531.10034	22.70138	-106.11326	332.79108	72.17400	101.44750	496.00604	19.29721	174.20938	583.34351	27.71733	100.57803	527.12720	22.53080	54.81998	
